<?xml version="1.0" encoding="UTF-8" standalone="no"?>
<svg
   xmlns:dc="http://purl.org/dc/elements/1.1/"
   xmlns:cc="http://creativecommons.org/ns#"
   xmlns:rdf="http://www.w3.org/1999/02/22-rdf-syntax-ns#"
   xmlns:svg="http://www.w3.org/2000/svg"
   xmlns="http://www.w3.org/2000/svg"
   viewBox="0 0 426.56 407.35999"
   height="407.35999"
   width="426.56"
   id="svg10"
   version="1.1">
  <metadata
     id="metadata16">
    <rdf:RDF>
      <cc:Work
         rdf:about="">
        <dc:format>image/svg+xml</dc:format>
        <dc:type
           rdf:resource="http://purl.org/dc/dcmitype/StillImage" />
        <dc:title></dc:title>
      </cc:Work>
    </rdf:RDF>
  </metadata>
  <defs
     id="defs14" />
  <g
     id="g18">
    <path
       id="path22"
       d="m 123.2,18.387422 c 7.58656,3.00295 14.5376,6.12519 20.8,11.52 2.99424,2.57952 6.18784,5.816 2.81152,9.58624 -1.55456,1.736 -3.808,2.67872 -6.01152,1.63936 -2.78816,-1.3152 -5.14976,-4.16384 -7.68,-5.96896 -4.05248,-2.89088 -8.6576,-5.0352 -13.44,-6.39984 -18.48224,-5.27411 -39.84256,1.83111 -50.53472,18.1032 -13.41984,20.42304 -7.57664,49.5008 13.09472,62.816638 5.15872,3.32288 10.925756,5.49536 16.959996,6.54336 2.813444,0.48864 5.893764,0.22304 8.640004,0.89056 4.29952,1.04512 5.74304,6.48032 2.22624,9.2512 -4.30432,3.39136 -11.512004,1.8016 -16.306244,0.53536 C 79.59456,123.16246 66.49312,113.12598 58.94528,100.62742 56.3984,96.410462 54.43712,91.907742 53.03072,87.187422 c -0.35968,-1.20672 -0.48864,-4.35008 -2.1856,-4.32832 -5.48544,0.0704 -12.74496,5.72256 -16.60512,9.14432 C 19.9688,104.6543 13.627712,127.8815 23.68,145.10742 c 6.053056,-1.40032 11.62016,-3.69984 17.92,-4.13152 16.42272,-1.12448 32.3696,6.02048 43.83872,17.57184 5.93248,5.97472 11.709436,13.77824 13.794876,22.07968 0.868804,3.45824 1.432964,8.16928 -2.27392,10.1952 -2.65088,1.44928 -5.849276,-0.004 -7.226236,-2.51552 -1.48928,-2.7168 -1.82816,-6.10912 -3.11328,-8.95968 -3.0352,-6.7328 -7.51136,-12.81984 -13.34016,-17.38624 -22.19552,-17.3888 -56.551328,-10.50496 -68.8355525,15.46624 -3.1710011,6.704 -4.62093006,14.0448 -4.43975616,21.44 0.279453,11.40703 5.45726016,22.59167 13.52666866,30.53567 1.81536,1.7872 6.351904,6.81856 9.18864,6.55136 2.018592,-0.19008 5.019232,-3.79296 6.72,-4.99296 6.02976,-4.2544 12.95904,-7.2816 20.16,-8.86976 3.66208,-0.80768 7.98624,-0.9968 9.10944,3.65568 0.60576,2.50976 -0.73344,5.0096 -3.02976,6.1056 -2.99584,1.43008 -6.75648,1.62912 -9.91968,2.75584 -5.79008,2.06272 -11.00928,5.71392 -15.36,10.01984 -20.250272,20.0416 -18.01056,55.4256 7.04,70.7792 4.33888,2.65952 9.5712,5.28032 14.72,5.69952 0.85472,-19.6048 19.50496,-36.92192 36.48,-43.712 5.780156,-2.31232 19.1856,-6.69472 23.3312,0.51328 1.56224,2.71584 -0.464,6.25088 -3.1712,7.31136 -2.76928,1.08448 -6.6256,0.57056 -9.600004,1.08736 -6.19136,1.07584 -12.439036,3.48384 -17.599996,7.10016 -18.30368,12.82624 -25.08512,38.51584 -14.30112,58.41984 10.20288,18.832 34.216,28.6432 54.62112,21.2992 6.32704,-2.2752 12.0848,-5.7984 16.9552,-10.448 2.5648,-2.448 4.45184,-6.5312 7.6848,-8.144 2.65888,-1.328 5.72256,0.6912 6.9952,3.0528 2.06528,3.8304 -3.00384,8.4576 -5.39648,10.88 -7.58944,7.68 -16.86944,13.856 -27.51872,16.32 2.18336,5.0592 6.60608,9.5584 10.88,12.9088 24.47808,19.1776 63.77536,6.4544 71.71712,-23.7888 2.336,-8.896 1.24288,-18.3872 1.24288,-27.52 v -48 -90.24 c 0,-14.80415 1.4176,-30.39679 -0.0547,-45.11999 -1.24224,-12.4256 -10.82944,-23.43744 -22.34528,-27.6176 -4.28096,-1.55392 -8.4352,-1.45984 -12.8,-2.24768 -3.15872,-0.57056 -5.70144,-4.15392 -4.36256,-7.25472 1.96992,-4.56128 7.37952,-3.75744 11.40256,-3.2 7.52192,1.04224 14.7072,4.20224 20.8,8.68992 2.6176,1.928 4.72352,4.49312 7.36,6.35008 V 63.507422 c 0,-14.78752 1.43136,-29.6864 -6.544,-42.88 C 185.71904,0.41696178 156.81696,-6.5428182 136.64,5.4607318 131.88224,8.2912618 125.26624,13.044612 123.2,18.387422 m 98.88,119.359998 c 2.63616,-1.85696 4.7424,-4.42208 7.36,-6.35008 6.0928,-4.48768 13.27808,-7.64768 20.8,-8.68992 4.0256,-0.55776 9.43104,-1.36544 11.40256,3.2 1.33888,3.1008 -1.20384,6.68416 -4.36256,7.25472 -4.3552,0.78624 -8.53888,0.70112 -12.8,2.24768 -11.51584,4.18016 -21.10304,15.192 -22.34528,27.6176 -1.47232,14.7232 -0.0547,30.31584 -0.0547,45.11999 v 90.56 48 c 0,8.9952 -1.112,18.4384 1.1952,27.2 7.96384,30.2464 47.29824,42.9568 71.7648,23.7888 4.27392,-3.3504 8.69664,-7.8496 10.88,-12.9088 -10.6496,-2.464 -19.92928,-8.64 -27.51872,-16.32 -2.784,-2.816 -7.51456,-7.2128 -5.00384,-11.5168 1.74048,-2.9792 4.936,-3.4528 7.56256,-1.4336 7.86688,6.048 12.86656,14.0608 22.72,17.4304 21.3184,7.2896 45.1328,-1.68 55.7152,-21.76 10.304,-19.552 3.9872,-44.96736 -14.1152,-57.5344 -5.2352,-3.63488 -11.328,-6.15648 -17.6,-7.28992 -3.072,-0.5552 -7.0592,-0.0227 -9.92,-1.14304 -2.71456,-1.06336 -4.7248,-4.59232 -3.17152,-7.31232 4.15104,-7.2688 17.52352,-2.83552 23.33152,-0.51232 14.16,5.66464 26.72,16.75552 32.7744,30.912 1.6832,3.93824 3.5168,8.47456 3.7056,12.8 5.1488,-0.4192 10.3808,-3.04 14.72,-5.69952 25.12,-15.3968 27.2192,-50.90944 7.04,-71.0992 -6.7808,-6.78304 -14.8928,-9.15936 -23.68,-12.08064 -2.3424,-0.77856 -5.488,-2.5088 -4.6976,-5.50304 0.7872,-2.97888 7.0944,-1.30272 9.1776,-0.95168 6.0512,1.0192 12.3264,2.632 17.92,5.19296 2.064,0.94496 4.1952,1.9472 6.08,3.21632 0.8448,0.56768 1.8176,1.68576 2.88,1.77312 2.864,0.23584 7.3504,-4.74336 9.1872,-6.55264 8.0736,-7.94528 13.248,-19.12384 13.5296,-30.53567 0.1792,-7.42432 -1.2576,-14.71072 -4.4416,-21.44 -12.2848,-25.9712 -46.64,-32.85504 -68.8352,-15.46624 -5.8272,4.5664 -10.304,10.65344 -13.3408,17.38624 -1.3152,2.91936 -1.616,6.58208 -3.296,9.27968 -1.5456,2.47712 -4.4,3.48672 -7.0432,2.09888 -4.3872,-2.30496 -2.9312,-6.6608 -1.7056,-10.41856 2.752,-8.4464 7.5072,-15.95008 13.6,-22.38752 11.2384,-11.87552 28.8512,-18.1424 45.0656,-16.59808 5.7088,0.54336 10.8064,2.50976 16.32,3.7856 9.9872,-17.11328 3.6992,-39.01888 -9.6,-52.158718 -3.6288,-3.58656 -8.128,-6.39712 -12.8,-8.4112 -1.408,-0.60736 -3.1968,-1.65824 -4.7648,-1.6784 -1.6896,-0.0218 -1.8368,3.12096 -2.1824,4.32832 -1.3504,4.72992 -3.3664,9.20864 -5.856,13.439998 -7.7056,13.09152 -20.8672,22.32032 -35.5168,25.8784 -3.9904,0.9696 -11.808,3.0176 -15.3584,0.23552 -3.50528,-2.7472 -2.89984,-8.12608 1.5984,-9.53664 2.7392,-0.85888 6.0992,-0.48064 8.96,-0.97728 5.9296,-1.02976 11.5296,-3.15232 16.64,-6.3408 20.6016,-12.854718 26.8,-41.703038 13.856,-62.059198 -10.5504,-16.59581 -31.0976,-24.37968 -50.016,-19.19657 -5.40288,1.48032 -10.4336,3.86217 -15.04,7.04489 -2.28544,1.57856 -4.26112,4.03296 -6.72,5.28672 -2.25056,1.14752 -4.71392,0.33984 -6.33152,-1.4688 -3.2992,-3.68896 -0.097,-7.08064 2.81152,-9.58624 6.26238,-5.39501 13.21342,-8.51705 20.79998,-11.52 C 301.07072,12.468252 293.45408,7.3218218 288,4.5494118 267.68224,-5.7782682 241.28,0.60231178 229.06048,20.307422 c -8.38336,13.51872 -6.98048,28.59776 -6.98048,43.84 V 137.74742 M 100.48,70.673502 c 4.10624,-0.92256 6.64576,2.91552 9.6,5.02272 4.42912,3.15968 9.6352,5.25632 15.04,5.95872 7.29696,0.94816 14.74528,-0.64512 21.12,-4.29792 3.62912,-2.07936 7.03168,-7.20032 11.52,-6.77568 5.69248,0.53824 5.79808,6.9408 2.5552,10.20128 -5.76864,5.79968 -13.54944,9.42752 -21.4352,11.24096 -11.43424,2.62912 -24.14336,0.16768 -33.92,-6.22624 -2.82784,-1.84928 -6.567684,-4.17632 -8.178564,-7.24992 -1.60192,-3.05632 0.32128,-7.11552 3.698564,-7.87392 m 167.68,-0.001 c 4.11264,-0.8944 6.9504,3.1344 9.92,5.2656 4.2768,3.06912 9.50432,5.03968 14.72,5.71712 6.74432,0.87584 14.22912,-0.3392 20.16,-3.75232 3.74112,-2.15264 7.9424,-7.74336 12.48,-7.32128 5.584,0.51968 5.7792,6.95648 2.5536,10.20128 -5.7632,5.8016 -13.55104,9.42848 -21.4336,11.24096 -11.43424,2.62912 -24.14336,0.16768 -33.92,-6.22624 -2.76608,-1.80928 -6.66752,-4.17056 -8.13664,-7.24992 -1.5008,-3.14464 0.19168,-7.1216 3.65664,-7.8752 M 125.12,177.84148 c 6.0976,-0.7296 13.36576,1.59872 18.88,3.97632 23.27168,10.03488 33.73632,38.74911 22.9376,61.52991 -3.4608,7.30048 -9.0592,13.38336 -15.5776,18.05472 -6.53632,4.68384 -16.30688,9.5648 -24.64,8.36832 -4.66656,-0.67008 -10.09632,-5.52288 -5.05984,-9.93248 2.76352,-2.4192 8.30112,-1.54784 11.77984,-2.37344 6.09888,-1.44768 11.36608,-4.5904 15.9952,-8.76864 16.0208,-14.45888 13.21024,-41.34912 -4.1552,-53.34015 -4.23008,-2.92096 -9.01088,-4.98752 -14.08,-5.89152 -2.56736,-0.4576 -5.97664,0.104 -8.31968,-1.02016 -5.2656,-2.52544 -2.97472,-9.97888 2.23968,-10.60288 m 174.72,-10e-4 c 5.10752,-0.54176 9.32896,5.27712 5.37152,9.47296 -2.86784,3.04064 -10.6464,2.01408 -14.65152,3.34816 -10.09696,3.36288 -18.39776,11.3296 -22.06304,21.32639 -6.14912,16.77152 2.16608,35.68992 18.22304,43.27008 3.40768,1.60896 7.14304,2.57952 10.88,3.0384 2.26848,0.2784 4.66048,-0.23392 6.7152,1.05312 3.49152,2.18752 2.93536,8.39712 -0.9552,9.83392 -4.40608,1.6272 -11.38656,-0.25536 -15.68,-1.6256 -15.28576,-4.87904 -27.16992,-17.23168 -31.0736,-32.84992 -5.07904,-20.32128 4.90304,-42.03455 23.3936,-51.73759 6.28512,-3.29824 12.89536,-4.39296 19.84,-5.12992 M 82.88,216.27349 c 3.52384,-0.79296 6.808,1.65632 6.856,5.31392 0.0752,5.7056 -2.1824,11.93376 -4.69536,16.96 -6.74944,13.49824 -20.49952,22.51808 -35.44064,23.9456 -3.18144,0.304 -8.38496,0.82496 -11.19872,-0.9072 -3.32672,-2.048 -3.40832,-7.43648 0.01152,-9.48096 3.08256,-1.84288 8.28672,-0.34592 11.8272,-0.89792 7.51616,-1.17184 13.8704,-4.74464 19.19968,-10.09952 4.3216,-4.34208 7.06752,-9.76256 8.52064,-15.68 0.8448,-3.44032 0.55232,-8.17152 4.91968,-9.15392 m 258.24,-0.0208 c 2.3424,-0.42176 4.7744,0.30208 5.9904,2.456 1.296,2.2944 1.2288,5.75808 1.8912,8.31872 1.0656,4.11488 3.1456,8.1856 5.7728,11.52 5.2704,6.6928 12.8288,11.19712 21.2256,12.55872 3.4848,0.5648 8.8192,-0.81632 11.84,0.90976 4.8192,2.75488 2.9216,8.58656 -1.6,10.25088 -4.88,1.79712 -10.8192,0.82656 -15.68,-0.54464 -11.8496,-3.344 -22.7392,-11.20736 -28.5504,-22.21472 -2.6816,-5.07776 -4.4512,-10.60224 -5.0656,-16.32 -0.3328,-3.09632 0.6688,-6.3024 4.176,-6.93472 m -209.28,91.82624 c 8.90048,-1.05376 18.49504,1.05248 26.24,5.48512 3.73792,2.13952 8.10432,7.10176 3.17024,10.85536 -4.46912,3.4016 -11.22976,-2.6304 -15.65024,-4.0576 -7.76064,-2.50432 -16.32832,-1.58752 -23.68,1.8048 -3.97536,1.8336 -7.75808,4.6176 -10.64672,7.904 -1.96896,2.2432 -3.65952,5.7792 -6.95328,6.048 -3.6576,0.2944 -7.306884,-2.8032 -6.195844,-6.6912 0.7456,-2.608 3.070724,-5.1424 4.920644,-7.04 7.92256,-8.1248 17.51744,-12.97376 28.7952,-14.30848 m 153.92,0 c 12.06656,-1.42848 26.16224,3.0944 35.2,11.16416 2.9216,2.60992 6.544,6.12992 7.2544,10.18432 0.5152,2.9376 -0.8128,6.1408 -4.0544,6.6528 -4.77344,0.7488 -6.9168,-3.9776 -9.73568,-6.9184 -3.90528,-4.0736 -8.89248,-7.0208 -14.26432,-8.6848 -6.90592,-2.14144 -13.98336,-1.94624 -20.8,0.4192 -3.55872,1.2384 -7.9584,5.3984 -11.84,4.5216 -4.56096,-1.0336 -5.78496,-6.91744 -2.20992,-9.82688 5.6128,-4.568 13.4144,-6.67936 20.44992,-7.512 z"
       style="fill:#f3f3f3;stroke:none;stroke-width:0.32" />
  </g>
</svg>
